<?xml version="1.0" encoding="UTF-8" standalone="no"?>
<svg
   width="100mm"
   height="86.599998mm"
   viewBox="0 0 100 86.599998"
   version="1.1"
   id="svg6"
   xml:space="preserve"
   xmlns="http://www.w3.org/2000/svg"
   xmlns:svg="http://www.w3.org/2000/svg"><defs
     id="defs10" /><g
     id="g4"><polygon
       points="25,86.6 0,43.3 25,0 75,0 100,43.3 75,86.6 "
       style="fill:none;stroke:#000000;stroke-width:0.1"
       id="polygon2" /></g><ellipse
     style="fill:#6f7c91;stroke:none;stroke-width:0.0710108"
     id="path8077"
     cx="46.706635"
     cy="45.738174"
     rx="8.2083797"
     ry="15.325688"
     transform="matrix(0.99690862,-0.07856968,0.07568082,0.99713209,0,0)" /><ellipse
     style="fill:#6f7c91;stroke:none;stroke-width:0.0655262"
     id="path8077-6"
     cx="46.326153"
     cy="59.108173"
     rx="8.8499689"
     ry="12.103671"
     transform="matrix(0.99423654,-0.10720866,0.06557586,0.99784759,0,0)" /><ellipse
     style="fill:#6f7c91;stroke:none;stroke-width:0.0916285"
     id="path8079"
     cx="50.867252"
     cy="22.093119"
     rx="3.7762508"
     ry="11.326108"
     transform="matrix(0.99712904,0.075721,-0.04716342,0.99888719,0,0)" /><ellipse
     style="fill:#6f7c91;stroke:none;stroke-width:0.0548208"
     id="path8079-0"
     cx="45.251549"
     cy="27.07502"
     rx="3.630861"
     ry="4.2165732"
     transform="matrix(0.96954424,-0.24491625,0.22776518,0.97371609,0,0)" /><ellipse
     style="fill:#6f7c91;stroke:none;stroke-width:0.0429789"
     id="path8079-0-6"
     cx="50.389244"
     cy="7.2129984"
     rx="2.2345314"
     ry="4.2111611"
     transform="matrix(0.99739655,0.07211181,-0.03592567,0.99935446,0,0)" /><ellipse
     style="fill:#6f7c91;stroke:none;stroke-width:0.100423"
     id="path8103"
     cx="26.874348"
     cy="40.394508"
     rx="2.1300039"
     ry="1.0390264"
     transform="rotate(-37.53463)" /><ellipse
     style="fill:#6f7c91;stroke:none;stroke-width:0.100423"
     id="path8103-3"
     cx="46.104687"
     cy="-32.784473"
     rx="2.1300039"
     ry="1.0390264"
     transform="rotate(51.919793)" /><ellipse
     style="fill:#6f7c91;stroke:none;stroke-width:0.100423"
     id="path8149"
     cx="49.028114"
     cy="66.699135"
     rx="1.9221988"
     ry="5.1951323"
     transform="rotate(0.477184)" /><ellipse
     style="fill:#6f7c91;stroke:none;stroke-width:0.08825"
     id="path8149-4"
     cx="81.894218"
     cy="-25.891718"
     rx="1.7290418"
     ry="4.4601765"
     transform="matrix(0.25207111,0.96770871,-0.96033916,0.27883454,0,0)" /><ellipse
     style="fill:#6f7c91;stroke:none;stroke-width:0.085339"
     id="path8149-4-5"
     cx="64.697586"
     cy="54.781776"
     rx="1.5988905"
     ry="4.5102949"
     transform="matrix(0.92798462,0.37261849,-0.33715757,0.94144823,0,0)" /><rect
     style="fill:#ff9955;stroke:none;stroke-width:0.0787143"
     id="rect2627-2-1"
     width="3.7052217"
     height="18.550705"
     x="43.39521"
     y="41.723888"
     transform="matrix(0.95551141,-0.29495413,0.29752669,0.9547135,0,0)" /><rect
     style="fill:#000000;stroke:none;stroke-width:0.12026"
     id="rect2627-2-1-9-0"
     width="3.7058637"
     height="43.293728"
     x="57.329643"
     y="-30.769018"
     transform="matrix(0.74402238,0.6681547,-0.65410414,0.7564045,0,0)" /><rect
     style="fill:#ff9955;stroke:none;stroke-width:0.0784928"
     id="rect2627-2-1-9"
     width="3.7051835"
     height="18.446625"
     x="54.108234"
     y="-1.4844971"
     transform="matrix(0.85990686,0.51045097,-0.50677682,0.86207729,0,0)" /><circle
     style="fill:#008000;stroke:none;stroke-width:0.0732288"
     id="path1889"
     cx="35.349632"
     cy="56.950207"
     transform="rotate(-16.845828)"
     r="9.7738371" /><circle
     style="fill:#008000;stroke:none;stroke-width:0.0284025"
     id="path1889-9"
     cx="45.873215"
     cy="59.674591"
     transform="rotate(-16.845828)"
     r="3.7908831" /><circle
     style="fill:#008000;stroke:none;stroke-width:0.0284025"
     id="path1889-9-6"
     cx="25.573904"
     cy="54.118992"
     transform="rotate(-16.845828)"
     r="3.7908831" /><ellipse
     style="fill:#44aa00;fill-opacity:1;stroke-width:0.0390216"
     id="path4404"
     cx="40.679035"
     cy="46.372288"
     rx="3.0921035"
     ry="2.6612363"
     transform="rotate(-7.0674033)" /></svg>
