<?xml version="1.0" encoding="UTF-8"?>
<!DOCTYPE svg PUBLIC "-//W3C//DTD SVG 1.1//EN" "http://www.w3.org/Graphics/SVG/1.1/DTD/svg11.dtd">
<svg version="1.2" width="100mm" height="86.6mm" viewBox="0 0 10000 8660" preserveAspectRatio="xMidYMid" fill-rule="evenodd" stroke-width="28.222" stroke-linejoin="round" xmlns="http://www.w3.org/2000/svg" xmlns:ooo="http://xml.openoffice.org/svg/export" xmlns:xlink="http://www.w3.org/1999/xlink" xmlns:presentation="http://sun.com/xmlns/staroffice/presentation" xmlns:smil="http://www.w3.org/2001/SMIL20/" xmlns:anim="urn:oasis:names:tc:opendocument:xmlns:animation:1.0" xml:space="preserve">
 <defs class="ClipPathGroup">
  <clipPath id="presentation_clip_path" clipPathUnits="userSpaceOnUse">
   <rect x="0" y="0" width="10000" height="8660"/>
  </clipPath>
  <clipPath id="presentation_clip_path_shrink" clipPathUnits="userSpaceOnUse">
   <rect x="10" y="8" width="9980" height="8643"/>
  </clipPath>
 </defs>
 <defs class="TextShapeIndex">
  <g ooo:slide="id1" ooo:id-list="id3 id4 id5 id6 id7 id8 id9 id10 id11 id12 id13 id14 id15 id16 id17 id18 id19 id20 id21 id22 id23 id24"/>
 </defs>
 <defs class="EmbeddedBulletChars">
  <g id="bullet-char-template-57356" transform="scale(0.00048828125,-0.00048828125)">
   <path d="M 580,1141 L 1163,571 580,0 -4,571 580,1141 Z"/>
  </g>
  <g id="bullet-char-template-57354" transform="scale(0.00048828125,-0.00048828125)">
   <path d="M 8,1128 L 1137,1128 1137,0 8,0 8,1128 Z"/>
  </g>
  <g id="bullet-char-template-10146" transform="scale(0.00048828125,-0.00048828125)">
   <path d="M 174,0 L 602,739 174,1481 1456,739 174,0 Z M 1358,739 L 309,1346 659,739 1358,739 Z"/>
  </g>
  <g id="bullet-char-template-10132" transform="scale(0.00048828125,-0.00048828125)">
   <path d="M 2015,739 L 1276,0 717,0 1260,543 174,543 174,936 1260,936 717,1481 1274,1481 2015,739 Z"/>
  </g>
  <g id="bullet-char-template-10007" transform="scale(0.00048828125,-0.00048828125)">
   <path d="M 0,-2 C -7,14 -16,27 -25,37 L 356,567 C 262,823 215,952 215,954 215,979 228,992 255,992 264,992 276,990 289,987 310,991 331,999 354,1012 L 381,999 492,748 772,1049 836,1024 860,1049 C 881,1039 901,1025 922,1006 886,937 835,863 770,784 769,783 710,716 594,584 L 774,223 C 774,196 753,168 711,139 L 727,119 C 717,90 699,76 672,76 641,76 570,178 457,381 L 164,-76 C 142,-110 111,-127 72,-127 30,-127 9,-110 8,-76 1,-67 -2,-52 -2,-32 -2,-23 -1,-13 0,-2 Z"/>
  </g>
  <g id="bullet-char-template-10004" transform="scale(0.00048828125,-0.00048828125)">
   <path d="M 285,-33 C 182,-33 111,30 74,156 52,228 41,333 41,471 41,549 55,616 82,672 116,743 169,778 240,778 293,778 328,747 346,684 L 369,508 C 377,444 397,411 428,410 L 1163,1116 C 1174,1127 1196,1133 1229,1133 1271,1133 1292,1118 1292,1087 L 1292,965 C 1292,929 1282,901 1262,881 L 442,47 C 390,-6 338,-33 285,-33 Z"/>
  </g>
  <g id="bullet-char-template-9679" transform="scale(0.00048828125,-0.00048828125)">
   <path d="M 813,0 C 632,0 489,54 383,161 276,268 223,411 223,592 223,773 276,916 383,1023 489,1130 632,1184 813,1184 992,1184 1136,1130 1245,1023 1353,916 1407,772 1407,592 1407,412 1353,268 1245,161 1136,54 992,0 813,0 Z"/>
  </g>
  <g id="bullet-char-template-8226" transform="scale(0.00048828125,-0.00048828125)">
   <path d="M 346,457 C 273,457 209,483 155,535 101,586 74,649 74,723 74,796 101,859 155,911 209,963 273,989 346,989 419,989 480,963 531,910 582,859 608,796 608,723 608,648 583,586 532,535 482,483 420,457 346,457 Z"/>
  </g>
  <g id="bullet-char-template-8211" transform="scale(0.00048828125,-0.00048828125)">
   <path d="M -4,459 L 1135,459 1135,606 -4,606 -4,459 Z"/>
  </g>
  <g id="bullet-char-template-61548" transform="scale(0.00048828125,-0.00048828125)">
   <path d="M 173,740 C 173,903 231,1043 346,1159 462,1274 601,1332 765,1332 928,1332 1067,1274 1183,1159 1299,1043 1357,903 1357,740 1357,577 1299,437 1183,322 1067,206 928,148 765,148 601,148 462,206 346,322 231,437 173,577 173,740 Z"/>
  </g>
 </defs>
 <defs class="TextEmbeddedBitmaps"/>
 <g>
  <g id="id2" class="Master_Slide">
   <g id="bg-id2" class="Background"/>
   <g id="bo-id2" class="BackgroundObjects"/>
  </g>
 </g>
 <g class="SlideGroup">
  <g>
   <g id="container-id1">
    <g id="id1" class="Slide" clip-path="url(#presentation_clip_path)">
     <g class="Page">
      <g class="Group">
       <g class="com.sun.star.drawing.CustomShape">
        <g id="id3">
         <rect class="BoundingBox" stroke="none" fill="none" x="4049" y="1680" width="1090" height="1090"/>
         <path fill="rgb(0,0,0)" stroke="none" d="M 4593,1680 C 4901,1680 5137,1916 5137,2224 5137,2532 4901,2768 4593,2768 4285,2768 4049,2532 4049,2224 4049,1916 4285,1680 4593,1680 Z M 4049,1680 L 4049,1680 Z M 5138,2769 L 5138,2769 Z"/>
        </g>
       </g>
       <g class="com.sun.star.drawing.LineShape">
        <g id="id4">
         <rect class="BoundingBox" stroke="none" fill="none" x="3780" y="4347" width="902" height="1192"/>
         <path fill="none" stroke="rgb(0,0,0)" stroke-width="176" stroke-linejoin="round" d="M 3868,5450 L 4593,4435"/>
        </g>
       </g>
       <g class="com.sun.star.drawing.LineShape">
        <g id="id5">
         <rect class="BoundingBox" stroke="none" fill="none" x="4505" y="2607" width="177" height="1990"/>
         <path fill="none" stroke="rgb(0,0,0)" stroke-width="176" stroke-linejoin="round" d="M 4593,2695 L 4593,4508"/>
        </g>
       </g>
       <g class="com.sun.star.drawing.LineShape">
        <g id="id6">
         <rect class="BoundingBox" stroke="none" fill="none" x="4505" y="4347" width="902" height="1192"/>
         <path fill="none" stroke="rgb(0,0,0)" stroke-width="176" stroke-linejoin="round" d="M 5318,5450 L 4593,4435"/>
        </g>
       </g>
       <g class="com.sun.star.drawing.LineShape">
        <g id="id7">
         <rect class="BoundingBox" stroke="none" fill="none" x="3852" y="3259" width="830" height="468"/>
         <path fill="none" stroke="rgb(0,0,0)" stroke-width="176" stroke-linejoin="round" d="M 3941,3638 L 4593,3348"/>
        </g>
       </g>
       <g class="com.sun.star.drawing.LineShape">
        <g id="id8">
         <rect class="BoundingBox" stroke="none" fill="none" x="4505" y="3259" width="540" height="903"/>
         <path fill="none" stroke="rgb(0,0,0)" stroke-width="176" stroke-linejoin="round" d="M 4956,4073 L 4593,3348"/>
        </g>
       </g>
       <g class="com.sun.star.drawing.LineShape">
        <g id="id9">
         <rect class="BoundingBox" stroke="none" fill="none" x="4795" y="3622" width="902" height="540"/>
         <path fill="none" stroke="rgb(0,0,0)" stroke-width="176" stroke-linejoin="round" d="M 4883,4073 L 5608,3710"/>
        </g>
       </g>
       <g class="com.sun.star.drawing.LineShape">
        <g id="id10">
         <rect class="BoundingBox" stroke="none" fill="none" x="3869" y="3487" width="323" height="613"/>
         <path fill="none" stroke="rgb(0,0,0)" stroke-width="176" stroke-linejoin="round" d="M 4103,4011 L 3958,3576"/>
        </g>
       </g>
       <g class="com.sun.star.drawing.CustomShape">
        <g id="id11">
         <rect class="BoundingBox" stroke="none" fill="none" x="2467" y="4580" width="3829" height="1302"/>
         <path fill="rgb(0,0,0)" stroke="none" d="M 4381,4580 C 5465,4580 6294,4862 6294,5230 6294,5598 5465,5880 4381,5880 3297,5880 2468,5598 2468,5230 2468,4862 3297,4580 4381,4580 Z M 2468,4580 L 2468,4580 Z M 6295,5881 L 6295,5881 Z"/>
        </g>
       </g>
       <g class="com.sun.star.drawing.LineShape">
        <g id="id12">
         <rect class="BoundingBox" stroke="none" fill="none" x="2580" y="5492" width="477" height="977"/>
         <path fill="none" stroke="rgb(0,0,0)" stroke-width="176" stroke-linejoin="round" d="M 2668,6380 L 2968,5580"/>
        </g>
       </g>
       <g class="com.sun.star.drawing.LineShape">
        <g id="id13">
         <rect class="BoundingBox" stroke="none" fill="none" x="2980" y="5492" width="190" height="892"/>
         <path fill="none" stroke="rgb(0,0,0)" stroke-width="176" stroke-linejoin="round" d="M 3068,6295 L 3081,5580"/>
        </g>
       </g>
       <g class="com.sun.star.drawing.LineShape">
        <g id="id14">
         <rect class="BoundingBox" stroke="none" fill="none" x="5443" y="5492" width="552" height="1077"/>
         <path fill="none" stroke="rgb(0,0,0)" stroke-width="176" stroke-linejoin="round" d="M 5531,6480 L 5906,5580"/>
        </g>
       </g>
       <g class="com.sun.star.drawing.LineShape">
        <g id="id15">
         <rect class="BoundingBox" stroke="none" fill="none" x="5818" y="5392" width="802" height="677"/>
         <path fill="none" stroke="rgb(0,0,0)" stroke-width="176" stroke-linejoin="round" d="M 6531,5980 L 5906,5480"/>
        </g>
       </g>
       <g class="com.sun.star.drawing.LineShape">
        <g id="id16">
         <rect class="BoundingBox" stroke="none" fill="none" x="2555" y="6192" width="602" height="777"/>
         <path fill="none" stroke="rgb(0,0,0)" stroke-width="176" stroke-linejoin="round" d="M 3068,6880 L 2643,6280"/>
        </g>
       </g>
       <g class="com.sun.star.drawing.LineShape">
        <g id="id17">
         <rect class="BoundingBox" stroke="none" fill="none" x="2980" y="6092" width="602" height="877"/>
         <path fill="none" stroke="rgb(0,0,0)" stroke-width="176" stroke-linejoin="round" d="M 3493,6880 L 3068,6180"/>
        </g>
       </g>
       <g class="com.sun.star.drawing.LineShape">
        <g id="id18">
         <rect class="BoundingBox" stroke="none" fill="none" x="5080" y="6292" width="590" height="777"/>
         <path fill="none" stroke="rgb(0,0,0)" stroke-width="176" stroke-linejoin="round" d="M 5168,6980 L 5581,6380"/>
        </g>
       </g>
       <g class="com.sun.star.drawing.LineShape">
        <g id="id19">
         <rect class="BoundingBox" stroke="none" fill="none" x="6005" y="5792" width="552" height="677"/>
         <path fill="none" stroke="rgb(0,0,0)" stroke-width="176" stroke-linejoin="round" d="M 6093,6380 L 6468,5880"/>
        </g>
       </g>
       <g class="com.sun.star.drawing.CustomShape">
        <g id="id20">
         <rect class="BoundingBox" stroke="none" fill="none" x="5329" y="3377" width="1942" height="2222"/>
         <path fill="rgb(0,0,0)" stroke="none" d="M 5929,4284 C 6269,3667 6689,3283 6898,3398 7108,3513 7008,4074 6668,4691 6328,5309 5909,5692 5699,5577 5490,5462 5589,4902 5929,4284 Z M 5330,5373 L 5330,5373 Z M 7269,3601 L 7269,3601 Z"/>
        </g>
       </g>
       <g class="com.sun.star.drawing.CustomShape">
        <g id="id21">
         <rect class="BoundingBox" stroke="none" fill="none" x="6467" y="3384" width="1067" height="1233"/>
         <path fill="rgb(0,0,0)" stroke="none" d="M 6745,3397 C 6903,3330 7133,3540 7277,3882 7421,4224 7410,4537 7253,4603 7095,4670 6865,4458 6721,4116 6577,3774 6587,3463 6745,3397 Z M 6468,3513 L 6468,3513 Z M 7532,4487 L 7532,4487 Z"/>
        </g>
       </g>
       <g class="com.sun.star.drawing.LineShape">
        <g id="id22">
         <rect class="BoundingBox" stroke="none" fill="none" x="3655" y="2792" width="2802" height="2377"/>
         <path fill="none" stroke="rgb(0,0,0)" stroke-width="176" stroke-linejoin="round" d="M 3743,5080 L 6368,2880"/>
        </g>
       </g>
       <g class="com.sun.star.drawing.LineShape">
        <g id="id23">
         <rect class="BoundingBox" stroke="none" fill="none" x="6053" y="2973" width="386" height="416"/>
         <path fill="none" stroke="rgb(0,0,0)" stroke-width="176" stroke-linejoin="round" d="M 6350,3299 L 6141,3061"/>
        </g>
       </g>
       <g class="com.sun.star.drawing.LineShape">
        <g id="id24">
         <rect class="BoundingBox" stroke="none" fill="none" x="6182" y="2692" width="775" height="679"/>
         <path fill="none" stroke="rgb(0,0,0)" stroke-width="176" stroke-linejoin="round" d="M 6270,3282 L 6868,2780"/>
        </g>
       </g>
      </g>
     </g>
    </g>
   </g>
  </g>
 </g>
</svg>