<?xml version="1.0" encoding="UTF-8" standalone="no"?>
<svg
   width="100mm"
   height="86.599998mm"
   viewBox="0 0 100 86.599998"
   version="1.1"
   id="svg6"
   xmlns="http://www.w3.org/2000/svg"
   xmlns:svg="http://www.w3.org/2000/svg">
  <defs
     id="defs10" />
  <g
     id="g4">
    <polygon
       points="25,86.6 0,43.3 25,0 75,0 100,43.3 75,86.6 "
       style="fill:none;stroke:#000000;stroke-width:0.1"
       id="polygon2" />
  </g>
  <rect
     style="fill:#ff9955;stroke:none;stroke-width:0.113728"
     id="rect2627-2-1-6"
     width="4.9245987"
     height="29.136358"
     x="60.448067"
     y="-3.151269"
     transform="matrix(0.78180944,0.62351744,-0.62432898,0.78116152,0,0)" />
  <rect
     style="fill:#000000;stroke:none;stroke-width:0.150302"
     id="rect2627"
     width="6.8918629"
     height="36.363182"
     x="48.623154"
     y="13.717454" />
  <rect
     style="fill:#000000;stroke:none;stroke-width:0.029209"
     id="rect2627-1-5"
     width="2.3586555"
     height="4.0127645"
     x="50.894829"
     y="10.513621" />
  <rect
     style="fill:#000000;stroke:none;stroke-width:0.110569"
     id="rect2627-1-8"
     width="33.79834"
     height="4.0127645"
     x="34.949974"
     y="21.788662" />
  <rect
     style="fill:#ff9955;stroke:none;stroke-width:0.102775"
     id="rect2627-2-1"
     width="4.9246798"
     height="23.794031"
     x="20.656225"
     y="61.11433"
     transform="matrix(0.83506372,-0.55015323,0.54804543,0.83644857,0,0)" />
  <circle
     style="fill:#008000;stroke:none;stroke-width:0.110691"
     id="path1889"
     cx="49.971367"
     cy="61.3125"
     r="14.773877" />
  <ellipse
     style="fill:#008000;stroke:none;stroke-width:0.117045"
     id="path2551"
     cx="66.634926"
     cy="61.484291"
     rx="5.3254676"
     ry="5.2109418" />
  <ellipse
     style="fill:#008000;stroke:none;stroke-width:0.122135"
     id="path2551-3"
     cx="33.594124"
     cy="61.08345"
     rx="5.5545201"
     ry="5.4399939" />
  <ellipse
     style="fill:#44aa00;fill-opacity:1;stroke-width:0.0658432"
     id="path4404"
     cx="44.88945"
     cy="55.713768"
     rx="5.2174649"
     ry="4.4904408" />
</svg>
