<?xml version="1.0" encoding="UTF-8" standalone="no"?>
<svg
   width="100mm"
   height="86.599998mm"
   viewBox="0 0 100 86.599998"
   version="1.1"
   id="svg6"
   xml:space="preserve"
   xmlns="http://www.w3.org/2000/svg"
   xmlns:svg="http://www.w3.org/2000/svg"><defs
     id="defs10" /><g
     id="g4"><polygon
       points="25,86.6 0,43.3 25,0 75,0 100,43.3 75,86.6 "
       style="fill:none;stroke:#000000;stroke-width:0.1"
       id="polygon2" /></g><rect
     style="fill:#000000;stroke:none;stroke-width:0.0777563"
     id="rect16767-5-4"
     width="5.7394156"
     height="24.246893"
     x="30.099638"
     y="70.58287"
     transform="matrix(0.94003427,-0.34108,0.34111993,0.94001978,0,0)" /><rect
     style="fill:#000000;stroke:none;stroke-width:0.0777563"
     id="rect16767-5-4-5"
     width="5.7394156"
     height="24.246893"
     x="-64.144768"
     y="36.769474"
     transform="matrix(-0.94003427,-0.34108,-0.34111993,0.94001978,0,0)" /><rect
     style="fill:#008000;stroke:none;stroke-width:0.12767"
     id="rect16767-5-0-6"
     width="11.006889"
     height="34.08477"
     x="46.720444"
     y="-67.035454"
     transform="matrix(0.00311441,0.99999515,-0.99989634,0.01439797,0,0)" /><rect
     style="fill:#000000;stroke:none;stroke-width:0.0702722"
     id="rect16767-5-0"
     width="4.6877398"
     height="24.246893"
     x="29.150366"
     y="39.00214" /><rect
     style="fill:#000000;stroke:none;stroke-width:0.0721269"
     id="rect16767-5"
     width="4.9384413"
     height="24.246893"
     x="66.330109"
     y="38.845695" /><rect
     style="fill:#008000;stroke:none;stroke-width:0.110977"
     id="rect16767-9"
     width="15.694487"
     height="18.062424"
     x="42.235813"
     y="52.781261" /><rect
     style="fill:#666666;stroke:none;stroke-width:0.157047"
     id="rect16767"
     width="12.676911"
     height="44.780991"
     x="43.995312"
     y="13.404914" /><rect
     style="fill:#666666;stroke:none;stroke-width:0.126258"
     id="rect16767-3"
     width="18.808294"
     height="19.508541"
     x="40.829014"
     y="36.257698" /><rect
     style="fill:#999999;stroke-width:0.0614185"
     id="rect13234"
     width="4.5746927"
     height="21.384027"
     x="45.002213"
     y="14.787961" /><rect
     style="fill:#999999;stroke-width:0.0563177"
     id="rect13234-2"
     width="4.5746927"
     height="17.979605"
     x="41.757366"
     y="37.07629" /><rect
     style="fill:#999999;stroke-width:0.0181872"
     id="rect13234-2-0"
     width="4.5746927"
     height="1.875091"
     x="44.736237"
     y="55.787312" /></svg>
