<?xml version="1.0" encoding="UTF-8"?>
<!DOCTYPE svg PUBLIC "-//W3C//DTD SVG 1.1//EN" "http://www.w3.org/Graphics/SVG/1.1/DTD/svg11.dtd">
<svg version="1.2" width="100mm" height="86.6mm" viewBox="0 0 10000 8660" preserveAspectRatio="xMidYMid" fill-rule="evenodd" stroke-width="28.222" stroke-linejoin="round" xmlns="http://www.w3.org/2000/svg" xmlns:ooo="http://xml.openoffice.org/svg/export" xmlns:xlink="http://www.w3.org/1999/xlink" xmlns:presentation="http://sun.com/xmlns/staroffice/presentation" xmlns:smil="http://www.w3.org/2001/SMIL20/" xmlns:anim="urn:oasis:names:tc:opendocument:xmlns:animation:1.0" xml:space="preserve">
 <g class="SlideGroup">
    <g id="mountain-sides" class="mountain-sides" >
        <path id="normal" fill="rgb(98,167,59)" stroke="none" d="M 7500,0 L 10001,4331 5000,4331 7500,0 Z M 5000,0 L 5000,0 Z M 10001,4331 L 10001,4331 Z"/>         
        <path id="very-dark" fill="rgb(64,121,39)" stroke="none" d="M 7500,8660 L 4999,4329 10000,4329 7500,8660 Z M 10000,8660 L 10000,8660 Z M 4999,4329 L 4999,4329 Z"/>     
        <path id="normal" fill="rgb(98,167,59)" stroke="none" d="M 5000,4330 L 7501,8661 2500,8661 5000,4330 Z M 2500,4330 L 2500,4330 Z M 7501,8661 L 7501,8661 Z"/>       
        <path id="dark" fill="rgb(87,152,53)" stroke="none" d="M 2500,8660 L -1,4329 5000,4329 2500,8660 Z M 5000,8660 L 5000,8660 Z M -1,4329 L -1,4329 Z"/>         
        <path id="light" fill="rgb(137,199,101)" stroke="none" d="M 5000,4330 L 2499,-1 7500,-1 5000,4330 Z M 7500,4330 L 7500,4330 Z M 2499,-1 L 2499,-1 Z"/>
        <path id="light" fill="rgb(137,199,101)" stroke="none" d="M 0,4330 L 2500,-2 5001,4329 0,4330 Z M 1250,6495 L 1250,6495 Z M 2500,-2 L 2500,-2 Z"/>
    </g>
 </g>
</svg>