<?xml version="1.0" encoding="UTF-8"?>
<!DOCTYPE svg PUBLIC "-//W3C//DTD SVG 1.1//EN" "http://www.w3.org/Graphics/SVG/1.1/DTD/svg11.dtd">
<svg version="1.2" width="100mm" height="86.6mm" viewBox="0 0 10000 8660" preserveAspectRatio="xMidYMid" fill-rule="evenodd" stroke-width="28.222" stroke-linejoin="round" xmlns="http://www.w3.org/2000/svg" xmlns:ooo="http://xml.openoffice.org/svg/export" xmlns:xlink="http://www.w3.org/1999/xlink" xmlns:presentation="http://sun.com/xmlns/staroffice/presentation" xmlns:smil="http://www.w3.org/2001/SMIL20/" xmlns:anim="urn:oasis:names:tc:opendocument:xmlns:animation:1.0" xml:space="preserve">
 <defs class="ClipPathGroup">
  <clipPath id="presentation_clip_path" clipPathUnits="userSpaceOnUse">
   <rect x="0" y="0" width="10000" height="8660"/>
  </clipPath>
  <clipPath id="presentation_clip_path_shrink" clipPathUnits="userSpaceOnUse">
   <rect x="10" y="8" width="9980" height="8643"/>
  </clipPath>
 </defs>
 <defs class="TextShapeIndex">
  <g ooo:slide="id1" ooo:id-list="id3 id4 id5 id6 id7 id8 id9 id10 id11 id12 id13 id14 id15 id16 id17"/>
 </defs>
 <defs class="EmbeddedBulletChars">
  <g id="bullet-char-template-57356" transform="scale(0.00048828125,-0.00048828125)">
   <path d="M 580,1141 L 1163,571 580,0 -4,571 580,1141 Z"/>
  </g>
  <g id="bullet-char-template-57354" transform="scale(0.00048828125,-0.00048828125)">
   <path d="M 8,1128 L 1137,1128 1137,0 8,0 8,1128 Z"/>
  </g>
  <g id="bullet-char-template-10146" transform="scale(0.00048828125,-0.00048828125)">
   <path d="M 174,0 L 602,739 174,1481 1456,739 174,0 Z M 1358,739 L 309,1346 659,739 1358,739 Z"/>
  </g>
  <g id="bullet-char-template-10132" transform="scale(0.00048828125,-0.00048828125)">
   <path d="M 2015,739 L 1276,0 717,0 1260,543 174,543 174,936 1260,936 717,1481 1274,1481 2015,739 Z"/>
  </g>
  <g id="bullet-char-template-10007" transform="scale(0.00048828125,-0.00048828125)">
   <path d="M 0,-2 C -7,14 -16,27 -25,37 L 356,567 C 262,823 215,952 215,954 215,979 228,992 255,992 264,992 276,990 289,987 310,991 331,999 354,1012 L 381,999 492,748 772,1049 836,1024 860,1049 C 881,1039 901,1025 922,1006 886,937 835,863 770,784 769,783 710,716 594,584 L 774,223 C 774,196 753,168 711,139 L 727,119 C 717,90 699,76 672,76 641,76 570,178 457,381 L 164,-76 C 142,-110 111,-127 72,-127 30,-127 9,-110 8,-76 1,-67 -2,-52 -2,-32 -2,-23 -1,-13 0,-2 Z"/>
  </g>
  <g id="bullet-char-template-10004" transform="scale(0.00048828125,-0.00048828125)">
   <path d="M 285,-33 C 182,-33 111,30 74,156 52,228 41,333 41,471 41,549 55,616 82,672 116,743 169,778 240,778 293,778 328,747 346,684 L 369,508 C 377,444 397,411 428,410 L 1163,1116 C 1174,1127 1196,1133 1229,1133 1271,1133 1292,1118 1292,1087 L 1292,965 C 1292,929 1282,901 1262,881 L 442,47 C 390,-6 338,-33 285,-33 Z"/>
  </g>
  <g id="bullet-char-template-9679" transform="scale(0.00048828125,-0.00048828125)">
   <path d="M 813,0 C 632,0 489,54 383,161 276,268 223,411 223,592 223,773 276,916 383,1023 489,1130 632,1184 813,1184 992,1184 1136,1130 1245,1023 1353,916 1407,772 1407,592 1407,412 1353,268 1245,161 1136,54 992,0 813,0 Z"/>
  </g>
  <g id="bullet-char-template-8226" transform="scale(0.00048828125,-0.00048828125)">
   <path d="M 346,457 C 273,457 209,483 155,535 101,586 74,649 74,723 74,796 101,859 155,911 209,963 273,989 346,989 419,989 480,963 531,910 582,859 608,796 608,723 608,648 583,586 532,535 482,483 420,457 346,457 Z"/>
  </g>
  <g id="bullet-char-template-8211" transform="scale(0.00048828125,-0.00048828125)">
   <path d="M -4,459 L 1135,459 1135,606 -4,606 -4,459 Z"/>
  </g>
  <g id="bullet-char-template-61548" transform="scale(0.00048828125,-0.00048828125)">
   <path d="M 173,740 C 173,903 231,1043 346,1159 462,1274 601,1332 765,1332 928,1332 1067,1274 1183,1159 1299,1043 1357,903 1357,740 1357,577 1299,437 1183,322 1067,206 928,148 765,148 601,148 462,206 346,322 231,437 173,577 173,740 Z"/>
  </g>
 </defs>
 <defs class="TextEmbeddedBitmaps"/>
 <g>
  <g id="id2" class="Master_Slide">
   <g id="bg-id2" class="Background"/>
   <g id="bo-id2" class="BackgroundObjects"/>
  </g>
 </g>
 <g class="SlideGroup">
  <g>
   <g id="container-id1">
    <g id="id1" class="Slide" clip-path="url(#presentation_clip_path)">
     <g class="Page">
      <g class="Group">
       <g class="com.sun.star.drawing.CustomShape">
        <g id="id3">
         <rect class="BoundingBox" stroke="none" fill="none" x="2880" y="2714" width="889" height="888"/>
         <path fill="rgb(192,102,22)" stroke="none" d="M 3324,2714 C 3082,2714 2881,2764 2881,2824 L 2881,3490 C 2881,3550 3082,3601 3324,3601 3566,3601 3768,3550 3768,3490 L 3768,2824 C 3768,2764 3566,2714 3324,2714 L 3324,2714 Z M 2881,2714 L 2881,2714 Z M 3768,3601 L 3768,3601 Z"/>
         <path fill="rgb(217,156,102)" stroke="none" d="M 3324,2714 C 3082,2714 2881,2764 2881,2824 2881,2885 3082,2935 3324,2935 3566,2935 3768,2885 3768,2824 3768,2764 3566,2714 3324,2714 L 3324,2714 Z M 2881,2714 L 2881,2714 Z M 3768,3601 L 3768,3601 Z"/>
        </g>
       </g>
       <g class="com.sun.star.drawing.CustomShape">
        <g id="id4">
         <rect class="BoundingBox" stroke="none" fill="none" x="1700" y="500" width="3250" height="2512"/>
         <path fill="rgb(0,178,116)" stroke="none" d="M 3324,500 C 4245,500 4948,1044 4948,1755 4948,2466 4245,3010 3324,3010 2403,3010 1700,2466 1700,1755 1700,1044 2403,500 3324,500 Z M 1700,500 L 1700,500 Z M 4949,3011 L 4949,3011 Z"/>
        </g>
       </g>
       <g class="com.sun.star.drawing.CustomShape">
        <g id="id5">
         <rect class="BoundingBox" stroke="none" fill="none" x="1995" y="794" width="1627" height="889"/>
         <path fill="rgb(173,213,138)" stroke="none" d="M 2807,795 C 3267,795 3619,987 3619,1238 3619,1489 3267,1681 2807,1681 2347,1681 1995,1489 1995,1238 1995,987 2347,795 2807,795 Z M 1995,795 L 1995,795 Z M 3620,1682 L 3620,1682 Z"/>
        </g>
       </g>
      </g>
      <g class="Group">
       <g class="com.sun.star.drawing.CustomShape">
        <g id="id6">
         <rect class="BoundingBox" stroke="none" fill="none" x="6381" y="3213" width="888" height="889"/>
         <path fill="rgb(192,102,22)" stroke="none" d="M 6824,3214 C 6582,3214 6381,3264 6381,3324 L 6381,3990 C 6381,4050 6582,4101 6824,4101 7066,4101 7268,4050 7268,3990 L 7268,3324 C 7268,3264 7066,3214 6824,3214 L 6824,3214 Z M 6381,3214 L 6381,3214 Z M 7268,4101 L 7268,4101 Z"/>
         <path fill="rgb(217,156,102)" stroke="none" d="M 6824,3214 C 6582,3214 6381,3264 6381,3324 6381,3385 6582,3435 6824,3435 7066,3435 7268,3385 7268,3324 7268,3264 7066,3214 6824,3214 L 6824,3214 Z M 6381,3214 L 6381,3214 Z M 7268,4101 L 7268,4101 Z"/>
        </g>
       </g>
       <g class="com.sun.star.drawing.CustomShape">
        <g id="id7">
         <rect class="BoundingBox" stroke="none" fill="none" x="5200" y="1000" width="3250" height="2512"/>
         <path fill="rgb(0,178,116)" stroke="none" d="M 6824,1000 C 7745,1000 8448,1544 8448,2255 8448,2966 7745,3510 6824,3510 5903,3510 5200,2966 5200,2255 5200,1544 5903,1000 6824,1000 Z M 5200,1000 L 5200,1000 Z M 8449,3511 L 8449,3511 Z"/>
        </g>
       </g>
       <g class="com.sun.star.drawing.CustomShape">
        <g id="id8">
         <rect class="BoundingBox" stroke="none" fill="none" x="5495" y="1294" width="1627" height="889"/>
         <path fill="rgb(173,213,138)" stroke="none" d="M 6307,1295 C 6767,1295 7119,1487 7119,1738 7119,1989 6767,2181 6307,2181 5847,2181 5495,1989 5495,1738 5495,1487 5847,1295 6307,1295 Z M 5495,1295 L 5495,1295 Z M 7120,2182 L 7120,2182 Z"/>
        </g>
       </g>
      </g>
      <g class="Group">
       <g class="com.sun.star.drawing.CustomShape">
        <g id="id9">
         <rect class="BoundingBox" stroke="none" fill="none" x="2181" y="5613" width="888" height="889"/>
         <path fill="rgb(192,102,22)" stroke="none" d="M 2624,5614 C 2382,5614 2181,5664 2181,5724 L 2181,6390 C 2181,6450 2382,6501 2624,6501 2866,6501 3068,6450 3068,6390 L 3068,5724 C 3068,5664 2866,5614 2624,5614 L 2624,5614 Z M 2181,5614 L 2181,5614 Z M 3068,6501 L 3068,6501 Z"/>
         <path fill="rgb(217,156,102)" stroke="none" d="M 2624,5614 C 2382,5614 2181,5664 2181,5724 2181,5785 2382,5835 2624,5835 2866,5835 3068,5785 3068,5724 3068,5664 2866,5614 2624,5614 L 2624,5614 Z M 2181,5614 L 2181,5614 Z M 3068,6501 L 3068,6501 Z"/>
        </g>
       </g>
       <g class="com.sun.star.drawing.CustomShape">
        <g id="id10">
         <rect class="BoundingBox" stroke="none" fill="none" x="1000" y="3400" width="3250" height="2512"/>
         <path fill="rgb(0,178,116)" stroke="none" d="M 2624,3400 C 3545,3400 4248,3944 4248,4655 4248,5366 3545,5910 2624,5910 1703,5910 1000,5366 1000,4655 1000,3944 1703,3400 2624,3400 Z M 1000,3400 L 1000,3400 Z M 4249,5911 L 4249,5911 Z"/>
        </g>
       </g>
       <g class="com.sun.star.drawing.CustomShape">
        <g id="id11">
         <rect class="BoundingBox" stroke="none" fill="none" x="1295" y="3694" width="1627" height="889"/>
         <path fill="rgb(173,213,138)" stroke="none" d="M 2107,3695 C 2567,3695 2919,3887 2919,4138 2919,4389 2567,4581 2107,4581 1647,4581 1295,4389 1295,4138 1295,3887 1647,3695 2107,3695 Z M 1295,3695 L 1295,3695 Z M 2920,4582 L 2920,4582 Z"/>
        </g>
       </g>
      </g>
      <g class="Group">
       <g class="com.sun.star.drawing.CustomShape">
        <g id="id12">
         <rect class="BoundingBox" stroke="none" fill="none" x="4081" y="6913" width="888" height="889"/>
         <path fill="rgb(192,102,22)" stroke="none" d="M 4524,6914 C 4282,6914 4081,6964 4081,7024 L 4081,7690 C 4081,7750 4282,7801 4524,7801 4766,7801 4968,7750 4968,7690 L 4968,7024 C 4968,6964 4766,6914 4524,6914 L 4524,6914 Z M 4081,6914 L 4081,6914 Z M 4968,7801 L 4968,7801 Z"/>
         <path fill="rgb(217,156,102)" stroke="none" d="M 4524,6914 C 4282,6914 4081,6964 4081,7024 4081,7085 4282,7135 4524,7135 4766,7135 4968,7085 4968,7024 4968,6964 4766,6914 4524,6914 L 4524,6914 Z M 4081,6914 L 4081,6914 Z M 4968,7801 L 4968,7801 Z"/>
        </g>
       </g>
       <g class="com.sun.star.drawing.CustomShape">
        <g id="id13">
         <rect class="BoundingBox" stroke="none" fill="none" x="2900" y="4700" width="3250" height="2512"/>
         <path fill="rgb(0,178,116)" stroke="none" d="M 4524,4700 C 5445,4700 6148,5244 6148,5955 6148,6666 5445,7210 4524,7210 3603,7210 2900,6666 2900,5955 2900,5244 3603,4700 4524,4700 Z M 2900,4700 L 2900,4700 Z M 6149,7211 L 6149,7211 Z"/>
        </g>
       </g>
       <g class="com.sun.star.drawing.CustomShape">
        <g id="id14">
         <rect class="BoundingBox" stroke="none" fill="none" x="3195" y="4995" width="1626" height="888"/>
         <path fill="rgb(173,213,138)" stroke="none" d="M 4007,4995 C 4467,4995 4819,5187 4819,5438 4819,5689 4467,5881 4007,5881 3547,5881 3195,5689 3195,5438 3195,5187 3547,4995 4007,4995 Z M 3195,4995 L 3195,4995 Z M 4820,5882 L 4820,5882 Z"/>
        </g>
       </g>
      </g>
      <g class="Group">
       <g class="com.sun.star.drawing.CustomShape">
        <g id="id15">
         <rect class="BoundingBox" stroke="none" fill="none" x="6632" y="6113" width="889" height="889"/>
         <path fill="rgb(192,102,22)" stroke="none" d="M 7076,6114 C 6834,6114 6633,6164 6633,6224 L 6633,6890 C 6633,6950 6834,7001 7076,7001 7318,7001 7520,6950 7520,6890 L 7520,6224 C 7520,6164 7318,6114 7076,6114 L 7076,6114 Z M 6633,6114 L 6633,6114 Z M 7520,7001 L 7520,7001 Z"/>
         <path fill="rgb(217,156,102)" stroke="none" d="M 7076,6114 C 6834,6114 6633,6164 6633,6224 6633,6285 6834,6335 7076,6335 7318,6335 7520,6285 7520,6224 7520,6164 7318,6114 7076,6114 L 7076,6114 Z M 6633,6114 L 6633,6114 Z M 7520,7001 L 7520,7001 Z"/>
        </g>
       </g>
       <g class="com.sun.star.drawing.CustomShape">
        <g id="id16">
         <rect class="BoundingBox" stroke="none" fill="none" x="5451" y="3900" width="3251" height="2512"/>
         <path fill="rgb(0,178,116)" stroke="none" d="M 7076,3900 C 7997,3900 8700,4444 8700,5155 8700,5866 7997,6410 7076,6410 6155,6410 5452,5866 5452,5155 5452,4444 6155,3900 7076,3900 Z M 5452,3900 L 5452,3900 Z M 8701,6411 L 8701,6411 Z"/>
        </g>
       </g>
       <g class="com.sun.star.drawing.CustomShape">
        <g id="id17">
         <rect class="BoundingBox" stroke="none" fill="none" x="5747" y="4195" width="1626" height="888"/>
         <path fill="rgb(173,213,138)" stroke="none" d="M 6559,4195 C 7019,4195 7371,4387 7371,4638 7371,4889 7019,5081 6559,5081 6099,5081 5747,4889 5747,4638 5747,4387 6099,4195 6559,4195 Z M 5747,4195 L 5747,4195 Z M 7372,5082 L 7372,5082 Z"/>
        </g>
       </g>
      </g>
     </g>
    </g>
   </g>
  </g>
 </g>
</svg>