<?xml version="1.0" encoding="UTF-8"?>
<!DOCTYPE svg PUBLIC "-//W3C//DTD SVG 1.1//EN" "http://www.w3.org/Graphics/SVG/1.1/DTD/svg11.dtd">
<svg version="1.2" width="100mm" height="86.6mm" viewBox="0 0 10000 8660" preserveAspectRatio="xMidYMid" fill-rule="evenodd" stroke-width="28.222" stroke-linejoin="round" xmlns="http://www.w3.org/2000/svg" xmlns:ooo="http://xml.openoffice.org/svg/export" xmlns:xlink="http://www.w3.org/1999/xlink" xmlns:presentation="http://sun.com/xmlns/staroffice/presentation" xmlns:smil="http://www.w3.org/2001/SMIL20/" xmlns:anim="urn:oasis:names:tc:opendocument:xmlns:animation:1.0" xmlns:svg="urn:oasis:names:tc:opendocument:xmlns:svg-compatible:1.0" xml:space="preserve">
    <path id="dark-forest" stroke="none" d="M 4837,1781 C 4837,2013 4776,2240 4660,2441 4545,2641 4378,2808 4178,2923 3977,3039 3750,3100 3518,3100 3286,3100 3059,3039 2859,2923 2658,2808 2491,2641 2376,2441 2260,2240 2199,2013 2199,1781 2199,1549 2260,1322 2376,1122 2491,921 2658,754 2858,639 3059,523 3286,462 3518,462 3750,462 3977,523 4177,639 4378,754 4545,921 4660,1121 4776,1322 4837,1549 4837,1781 L 4837,1781 Z"/>
    <path id="light-forest" stroke="none" d="M 4337,1581 C 4337,1760 4290,1936 4200,2091 4111,2245 3982,2374 3827,2463 3673,2553 3497,2600 3318,2600 3139,2600 2963,2553 2809,2463 2654,2374 2525,2245 2436,2091 2346,1936 2299,1760 2299,1581 2299,1402 2346,1226 2436,1072 2525,917 2654,788 2808,699 2963,609 3139,562 3318,562 3497,562 3673,609 3827,699 3982,788 4111,917 4200,1071 4290,1226 4337,1402 4337,1581 L 4337,1581 Z"/>
    <path id="dark-forest" stroke="none" d="M 8000,1818 C 8000,2050 7939,2277 7823,2478 7708,2678 7541,2845 7341,2960 7140,3076 6913,3137 6681,3137 6449,3137 6222,3076 6022,2960 5821,2845 5654,2678 5539,2478 5423,2277 5362,2050 5362,1818 5362,1586 5423,1359 5539,1159 5654,958 5821,791 6021,676 6222,560 6449,499 6681,499 6913,499 7140,560 7340,676 7541,791 7708,958 7823,1158 7939,1359 8000,1586 8000,1818 L 8000,1818 Z"/>
    <path id="light-forest" stroke="none" d="M 7500,1618 C 7500,1797 7453,1973 7363,2128 7274,2282 7145,2411 6991,2500 6836,2590 6660,2637 6481,2637 6302,2637 6126,2590 5972,2500 5817,2411 5688,2282 5599,2128 5509,1973 5462,1797 5462,1618 5462,1439 5509,1263 5599,1109 5688,954 5817,825 5971,736 6126,646 6302,599 6481,599 6660,599 6836,646 6990,736 7145,825 7274,954 7363,1108 7453,1263 7500,1439 7500,1618 L 7500,1618 Z"/>
    <path id="dark-forest" stroke="none" d="M 4300,6381 C 4300,6613 4239,6840 4123,7041 4008,7241 3841,7408 3641,7523 3440,7639 3213,7700 2981,7700 2749,7700 2522,7639 2322,7523 2121,7408 1954,7241 1839,7041 1723,6840 1662,6613 1662,6381 1662,6149 1723,5922 1839,5722 1954,5521 2121,5354 2321,5239 2522,5123 2749,5062 2981,5062 3213,5062 3440,5123 3640,5239 3841,5354 4008,5521 4123,5721 4239,5922 4300,6149 4300,6381 L 4300,6381 Z"/>
    <path id="light-forest" stroke="none" d="M 3800,6181 C 3800,6360 3753,6536 3663,6691 3574,6845 3445,6974 3291,7063 3136,7153 2960,7200 2781,7200 2602,7200 2426,7153 2272,7063 2117,6974 1988,6845 1899,6691 1809,6536 1762,6360 1762,6181 1762,6002 1809,5826 1899,5672 1988,5517 2117,5388 2271,5299 2426,5209 2602,5162 2781,5162 2960,5162 3136,5209 3290,5299 3445,5388 3574,5517 3663,5671 3753,5826 3800,6002 3800,6181 L 3800,6181 Z"/>
    <path id="dark-forest" stroke="none" d="M 7800,7081 C 7800,7313 7739,7540 7623,7741 7508,7941 7341,8108 7141,8223 6940,8339 6713,8400 6481,8400 6249,8400 6022,8339 5822,8223 5621,8108 5454,7941 5339,7741 5223,7540 5162,7313 5162,7081 5162,6849 5223,6622 5339,6422 5454,6221 5621,6054 5821,5939 6022,5823 6249,5762 6481,5762 6713,5762 6940,5823 7140,5939 7341,6054 7508,6221 7623,6421 7739,6622 7800,6849 7800,7081 L 7800,7081 Z"/>
    <path id="light-forest" stroke="none" d="M 7300,6881 C 7300,7060 7253,7236 7163,7391 7074,7545 6945,7674 6791,7763 6636,7853 6460,7900 6281,7900 6102,7900 5926,7853 5772,7763 5617,7674 5488,7545 5399,7391 5309,7236 5262,7060 5262,6881 5262,6702 5309,6526 5399,6372 5488,6217 5617,6088 5771,5999 5926,5909 6102,5862 6281,5862 6460,5862 6636,5909 6790,5999 6945,6088 7074,6217 7163,6371 7253,6526 7300,6702 7300,6881 L 7300,6881 Z"/>
    <path id="dark-forest" stroke="none" d="M 6500,4418 C 6500,4650 6439,4877 6323,5078 6208,5278 6041,5445 5841,5560 5640,5676 5413,5737 5181,5737 4949,5737 4722,5676 4522,5560 4321,5445 4154,5278 4039,5078 3923,4877 3862,4650 3862,4418 3862,4186 3923,3959 4039,3759 4154,3558 4321,3391 4521,3276 4722,3160 4949,3099 5181,3099 5413,3099 5640,3160 5840,3276 6041,3391 6208,3558 6323,3758 6439,3959 6500,4186 6500,4418 L 6500,4418 Z"/>
    <path id="light-forest" stroke="none" d="M 6000,4218 C 6000,4397 5953,4573 5863,4728 5774,4882 5645,5011 5491,5100 5336,5190 5160,5237 4981,5237 4802,5237 4626,5190 4472,5100 4317,5011 4188,4882 4099,4728 4009,4573 3962,4397 3962,4218 3962,4039 4009,3863 4099,3709 4188,3554 4317,3425 4471,3336 4626,3246 4802,3199 4981,3199 5160,3199 5336,3246 5490,3336 5645,3425 5774,3554 5863,3708 5953,3863 6000,4039 6000,4218 L 6000,4218 Z"/>
</svg>