<?xml version="1.0" encoding="UTF-8" standalone="no"?>
<!-- Created with Inkscape (http://www.inkscape.org/) -->

<svg width="100mm" height="86.599998mm" viewBox="0 0 100 86.599998" version="1.1" id="svg5"
   xmlns="http://www.w3.org/2000/svg" xmlns:svg="http://www.w3.org/2000/svg">
   <defs id="defs2" />
   <g id="layer1">
      <path
         style="opacity:1;fill:none;fill-opacity:1;stroke:#000000;stroke-width:0.0917071;stroke-miterlimit:4;stroke-dasharray:none;stroke-opacity:1"
         id="path115"
         d="m 87.629185,30.610882 -22.92643,39.709741 -45.85286,0 -22.9264293,-39.709741 22.9264293,-39.7097414 45.85286,0 z"
         transform="matrix(1.0891868,0,0,1.0891542,4.4977766,9.9600025)" />
      <path style="fill:none;stroke:#000000;stroke-width:0.1" id="path1884"
         d="m 68.93629,50.991732 -55.825384,0 27.912692,-48.3462013 z"
         transform="matrix(0.89271793,0,0,0.8929027,-11.625631,-2.2745041)" />
      <path style="fill:none;stroke:#000000;stroke-width:0.1" id="path1884-7"
         d="m 68.93629,50.991732 -55.825384,0 27.912692,-48.3462013 z"
         transform="matrix(0.8928799,0,0,0.89289467,38.370861,-2.2728822)" />
      <path style="fill:none;stroke:#000000;stroke-width:0.1" id="path1884-7-8"
         d="m 68.93629,50.991732 -55.825384,0 27.912692,-48.3462013 z"
         transform="matrix(0.8928799,0,0,0.89289467,13.370862,41.027109)" />
      <path style="fill:none;stroke:#000000;stroke-width:0.1" id="path1984"
         d="M 43.407231,38.765421 21.351944,0.56454527 l 44.110572,-1.18e-6 z"
         transform="matrix(1.1290648,0,0,1.1293101,0.99042505,-0.58128287)" />
      <path style="fill:none;stroke:#000000;stroke-width:0.1" id="path1984-6"
         d="M 43.407231,38.765421 21.351944,0.56454527 l 44.110572,-1.18e-6 z"
         transform="matrix(1.1290822,0,0,1.129048,25.98967,42.719061)" />
      <path style="fill:none;stroke:#000000;stroke-width:0.1" id="path1984-6-9"
         d="M 43.407231,38.765421 21.351944,0.56454527 l 44.110572,-1.18e-6 z"
         transform="matrix(1.1290822,0,0,1.129048,-24.010318,42.719055)" />
   </g>
</svg>