<svg xmlns="http://www.w3.org/2000/svg" version="1.1" xmlns:xlink="http://www.w3.org/1999/xlink"
  xmlns:svgjs="http://svgjs.dev/svgjs" viewBox="0 0 800 800">
  <g stroke-width="7" stroke="hsl(265, 55%, 20%)" fill="none" stroke-linecap="round"
    transform="matrix(1,0,0,1,-5,-223.99141311645508)">
    <path
      d="M10,10C23.06818181818182,11.666666666666666,44.507575757575765,23,72.72727272727273,18C100.9469696969697,13,115.15151515151517,-15.458333333333334,145.45454545454547,-14C175.75757575757575,-12.541666666666666,187.87878787878788,24.166666666666668,218.1818181818182,25C248.4848484848485,25.833333333333332,260.6060606060606,-11.666666666666666,290.90909090909093,-10C321.21212121212125,-8.333333333333334,333.33333333333337,32.791666666666664,363.6363636363637,33C393.939393939394,33.208333333333336,406.06060606060606,-7.75,436.3636363636364,-9C466.6666666666667,-10.25,478.7878787878788,26.166666666666668,509.0909090909091,27C539.3939393939395,27.833333333333332,551.5151515151515,-8.541666666666668,581.8181818181819,-5C612.1212121212122,-1.458333333333333,624.2424242424242,42.541666666666664,654.5454545454546,44C684.848484848485,45.458333333333336,696.969696969697,3.25,727.2727272727274,2C757.5757575757577,0.75,784.848484848485,30.5,800.0000000000001,38"
      transform="matrix(1,0,0,1,0,261)"></path>
    <path
      d="M10,10C23.06818181818182,11.666666666666666,44.507575757575765,23,72.72727272727273,18C100.9469696969697,13,115.15151515151517,-15.458333333333334,145.45454545454547,-14C175.75757575757575,-12.541666666666666,187.87878787878788,24.166666666666668,218.1818181818182,25C248.4848484848485,25.833333333333332,260.6060606060606,-11.666666666666666,290.90909090909093,-10C321.21212121212125,-8.333333333333334,333.33333333333337,32.791666666666664,363.6363636363637,33C393.939393939394,33.208333333333336,406.06060606060606,-7.75,436.3636363636364,-9C466.6666666666667,-10.25,478.7878787878788,26.166666666666668,509.0909090909091,27C539.3939393939395,27.833333333333332,551.5151515151515,-8.541666666666668,581.8181818181819,-5C612.1212121212122,-1.458333333333333,624.2424242424242,42.541666666666664,654.5454545454546,44C684.848484848485,45.458333333333336,696.969696969697,3.25,727.2727272727274,2C757.5757575757577,0.75,784.848484848485,30.5,800.0000000000001,38"
      transform="matrix(1,0,0,1,0,870)"></path>
    <path
      d="M10,10C23.06818181818182,11.666666666666666,44.507575757575765,23,72.72727272727273,18C100.9469696969697,13,115.15151515151517,-15.458333333333334,145.45454545454547,-14C175.75757575757575,-12.541666666666666,187.87878787878788,24.166666666666668,218.1818181818182,25C248.4848484848485,25.833333333333332,260.6060606060606,-11.666666666666666,290.90909090909093,-10C321.21212121212125,-8.333333333333334,333.33333333333337,32.791666666666664,363.6363636363637,33C393.939393939394,33.208333333333336,406.06060606060606,-7.75,436.3636363636364,-9C466.6666666666667,-10.25,478.7878787878788,26.166666666666668,509.0909090909091,27C539.3939393939395,27.833333333333332,551.5151515151515,-8.541666666666668,581.8181818181819,-5C612.1212121212122,-1.458333333333333,624.2424242424242,42.541666666666664,654.5454545454546,44C684.848484848485,45.458333333333336,696.969696969697,3.25,727.2727272727274,2C757.5757575757577,0.75,784.848484848485,30.5,800.0000000000001,38"
      transform="matrix(1,0,0,1,0,783)"></path>
    <path
      d="M10,10C23.06818181818182,11.666666666666666,44.507575757575765,23,72.72727272727273,18C100.9469696969697,13,115.15151515151517,-15.458333333333334,145.45454545454547,-14C175.75757575757575,-12.541666666666666,187.87878787878788,24.166666666666668,218.1818181818182,25C248.4848484848485,25.833333333333332,260.6060606060606,-11.666666666666666,290.90909090909093,-10C321.21212121212125,-8.333333333333334,333.33333333333337,32.791666666666664,363.6363636363637,33C393.939393939394,33.208333333333336,406.06060606060606,-7.75,436.3636363636364,-9C466.6666666666667,-10.25,478.7878787878788,26.166666666666668,509.0909090909091,27C539.3939393939395,27.833333333333332,551.5151515151515,-8.541666666666668,581.8181818181819,-5C612.1212121212122,-1.458333333333333,624.2424242424242,42.541666666666664,654.5454545454546,44C684.848484848485,45.458333333333336,696.969696969697,3.25,727.2727272727274,2C757.5757575757577,0.75,784.848484848485,30.5,800.0000000000001,38"
      transform="matrix(1,0,0,1,0,696)"></path>
    <path
      d="M10,10C23.06818181818182,11.666666666666666,44.507575757575765,23,72.72727272727273,18C100.9469696969697,13,115.15151515151517,-15.458333333333334,145.45454545454547,-14C175.75757575757575,-12.541666666666666,187.87878787878788,24.166666666666668,218.1818181818182,25C248.4848484848485,25.833333333333332,260.6060606060606,-11.666666666666666,290.90909090909093,-10C321.21212121212125,-8.333333333333334,333.33333333333337,32.791666666666664,363.6363636363637,33C393.939393939394,33.208333333333336,406.06060606060606,-7.75,436.3636363636364,-9C466.6666666666667,-10.25,478.7878787878788,26.166666666666668,509.0909090909091,27C539.3939393939395,27.833333333333332,551.5151515151515,-8.541666666666668,581.8181818181819,-5C612.1212121212122,-1.458333333333333,624.2424242424242,42.541666666666664,654.5454545454546,44C684.848484848485,45.458333333333336,696.969696969697,3.25,727.2727272727274,2C757.5757575757577,0.75,784.848484848485,30.5,800.0000000000001,38"
      transform="matrix(1,0,0,1,0,609)"></path>
    <path
      d="M10,10C23.06818181818182,11.666666666666666,44.507575757575765,23,72.72727272727273,18C100.9469696969697,13,115.15151515151517,-15.458333333333334,145.45454545454547,-14C175.75757575757575,-12.541666666666666,187.87878787878788,24.166666666666668,218.1818181818182,25C248.4848484848485,25.833333333333332,260.6060606060606,-11.666666666666666,290.90909090909093,-10C321.21212121212125,-8.333333333333334,333.33333333333337,32.791666666666664,363.6363636363637,33C393.939393939394,33.208333333333336,406.06060606060606,-7.75,436.3636363636364,-9C466.6666666666667,-10.25,478.7878787878788,26.166666666666668,509.0909090909091,27C539.3939393939395,27.833333333333332,551.5151515151515,-8.541666666666668,581.8181818181819,-5C612.1212121212122,-1.458333333333333,624.2424242424242,42.541666666666664,654.5454545454546,44C684.848484848485,45.458333333333336,696.969696969697,3.25,727.2727272727274,2C757.5757575757577,0.75,784.848484848485,30.5,800.0000000000001,38"
      transform="matrix(1,0,0,1,0,522)"></path>
    <path
      d="M10,10C23.06818181818182,11.666666666666666,44.507575757575765,23,72.72727272727273,18C100.9469696969697,13,115.15151515151517,-15.458333333333334,145.45454545454547,-14C175.75757575757575,-12.541666666666666,187.87878787878788,24.166666666666668,218.1818181818182,25C248.4848484848485,25.833333333333332,260.6060606060606,-11.666666666666666,290.90909090909093,-10C321.21212121212125,-8.333333333333334,333.33333333333337,32.791666666666664,363.6363636363637,33C393.939393939394,33.208333333333336,406.06060606060606,-7.75,436.3636363636364,-9C466.6666666666667,-10.25,478.7878787878788,26.166666666666668,509.0909090909091,27C539.3939393939395,27.833333333333332,551.5151515151515,-8.541666666666668,581.8181818181819,-5C612.1212121212122,-1.458333333333333,624.2424242424242,42.541666666666664,654.5454545454546,44C684.848484848485,45.458333333333336,696.969696969697,3.25,727.2727272727274,2C757.5757575757577,0.75,784.848484848485,30.5,800.0000000000001,38"
      transform="matrix(1,0,0,1,0,435)"></path>
    <path
      d="M10,10C23.06818181818182,11.666666666666666,44.507575757575765,23,72.72727272727273,18C100.9469696969697,13,115.15151515151517,-15.458333333333334,145.45454545454547,-14C175.75757575757575,-12.541666666666666,187.87878787878788,24.166666666666668,218.1818181818182,25C248.4848484848485,25.833333333333332,260.6060606060606,-11.666666666666666,290.90909090909093,-10C321.21212121212125,-8.333333333333334,333.33333333333337,32.791666666666664,363.6363636363637,33C393.939393939394,33.208333333333336,406.06060606060606,-7.75,436.3636363636364,-9C466.6666666666667,-10.25,478.7878787878788,26.166666666666668,509.0909090909091,27C539.3939393939395,27.833333333333332,551.5151515151515,-8.541666666666668,581.8181818181819,-5C612.1212121212122,-1.458333333333333,624.2424242424242,42.541666666666664,654.5454545454546,44C684.848484848485,45.458333333333336,696.969696969697,3.25,727.2727272727274,2C757.5757575757577,0.75,784.848484848485,30.5,800.0000000000001,38"
      transform="matrix(1,0,0,1,0,348)"></path>
    <path
      d="M10,10C23.06818181818182,11.666666666666666,44.507575757575765,23,72.72727272727273,18C100.9469696969697,13,115.15151515151517,-15.458333333333334,145.45454545454547,-14C175.75757575757575,-12.541666666666666,187.87878787878788,24.166666666666668,218.1818181818182,25C248.4848484848485,25.833333333333332,260.6060606060606,-11.666666666666666,290.90909090909093,-10C321.21212121212125,-8.333333333333334,333.33333333333337,32.791666666666664,363.6363636363637,33C393.939393939394,33.208333333333336,406.06060606060606,-7.75,436.3636363636364,-9C466.6666666666667,-10.25,478.7878787878788,26.166666666666668,509.0909090909091,27C539.3939393939395,27.833333333333332,551.5151515151515,-8.541666666666668,581.8181818181819,-5C612.1212121212122,-1.458333333333333,624.2424242424242,42.541666666666664,654.5454545454546,44C684.848484848485,45.458333333333336,696.969696969697,3.25,727.2727272727274,2C757.5757575757577,0.75,784.848484848485,30.5,800.0000000000001,38"
      transform="matrix(1,0,0,1,0,957)"></path>
  </g>
</svg>