<?xml version="1.0" encoding="UTF-8" standalone="no"?>
<svg
   width="100mm"
   height="86.599998mm"
   viewBox="0 0 100 86.599998"
   version="1.1"
   id="svg6"
   sodipodi:docname="water2.svg"
   inkscape:version="1.2.2 (732a01da63, 2022-12-09)"
   xmlns:inkscape="http://www.inkscape.org/namespaces/inkscape"
   xmlns:sodipodi="http://sodipodi.sourceforge.net/DTD/sodipodi-0.dtd"
   xmlns="http://www.w3.org/2000/svg"
   xmlns:svg="http://www.w3.org/2000/svg">
  <defs
     id="defs10">
    <inkscape:path-effect
       effect="bspline"
       id="path-effect2133"
       is_visible="true"
       lpeversion="1"
       weight="33.333333"
       steps="2"
       helper_size="0"
       apply_no_weight="true"
       apply_with_weight="true"
       only_selected="false" />
    <inkscape:path-effect
       effect="bspline"
       id="path-effect2072"
       is_visible="true"
       lpeversion="1"
       weight="33.333333"
       steps="2"
       helper_size="0"
       apply_no_weight="true"
       apply_with_weight="true"
       only_selected="false" />
    <inkscape:path-effect
       effect="bspline"
       id="path-effect2068"
       is_visible="true"
       lpeversion="1"
       weight="33.333333"
       steps="2"
       helper_size="0"
       apply_no_weight="true"
       apply_with_weight="true"
       only_selected="false" />
    <inkscape:path-effect
       effect="bspline"
       id="path-effect2064"
       is_visible="true"
       lpeversion="1"
       weight="33.333333"
       steps="2"
       helper_size="0"
       apply_no_weight="true"
       apply_with_weight="true"
       only_selected="false" />
    <inkscape:path-effect
       effect="bspline"
       id="path-effect2060"
       is_visible="true"
       lpeversion="1"
       weight="33.333333"
       steps="2"
       helper_size="0"
       apply_no_weight="true"
       apply_with_weight="true"
       only_selected="false" />
    <inkscape:path-effect
       effect="bspline"
       id="path-effect2056"
       is_visible="true"
       lpeversion="1"
       weight="33.333333"
       steps="2"
       helper_size="0"
       apply_no_weight="true"
       apply_with_weight="true"
       only_selected="false" />
    <inkscape:path-effect
       effect="bspline"
       id="path-effect2052"
       is_visible="true"
       lpeversion="1"
       weight="33.333333"
       steps="2"
       helper_size="0"
       apply_no_weight="true"
       apply_with_weight="true"
       only_selected="false" />
    <inkscape:path-effect
       effect="powerstroke"
       id="path-effect2036"
       is_visible="true"
       lpeversion="1"
       offset_points="0,4.9921383"
       not_jump="false"
       sort_points="true"
       interpolator_type="CubicBezierJohan"
       interpolator_beta="0.2"
       start_linecap_type="zerowidth"
       linejoin_type="extrp_arc"
       miter_limit="4"
       scale_width="1"
       end_linecap_type="zerowidth" />
    <inkscape:path-effect
       effect="bspline"
       id="path-effect2034"
       is_visible="true"
       lpeversion="1"
       weight="33.333333"
       steps="2"
       helper_size="0"
       apply_no_weight="true"
       apply_with_weight="true"
       only_selected="false" />
    <inkscape:path-effect
       effect="bspline"
       id="path-effect1968"
       is_visible="true"
       lpeversion="1"
       weight="33.333333"
       steps="2"
       helper_size="0"
       apply_no_weight="true"
       apply_with_weight="true"
       only_selected="false" />
    <inkscape:path-effect
       effect="bspline"
       id="path-effect1964"
       is_visible="true"
       lpeversion="1"
       weight="33.333333"
       steps="2"
       helper_size="0"
       apply_no_weight="true"
       apply_with_weight="true"
       only_selected="false" />
  </defs>
  <sodipodi:namedview
     id="namedview8"
     pagecolor="#ffffff"
     bordercolor="#666666"
     borderopacity="1.0"
     inkscape:showpageshadow="2"
     inkscape:pageopacity="0.0"
     inkscape:pagecheckerboard="0"
     inkscape:deskcolor="#d1d1d1"
     inkscape:document-units="mm"
     showgrid="false"
     inkscape:zoom="2.5572316"
     inkscape:cx="169.32373"
     inkscape:cy="216.64053"
     inkscape:window-width="1920"
     inkscape:window-height="1017"
     inkscape:window-x="1912"
     inkscape:window-y="-8"
     inkscape:window-maximized="1"
     inkscape:current-layer="svg6" />
  <g
     id="g4">
    <polygon
       points="25,0 75,0 100,43.3 75,86.6 25,86.6 0,43.3"
       style="fill:none;stroke:#000000;stroke-width:0.1"
       id="polygon2" />
  </g>
  <path
     style="fill:none;stroke:#000000;stroke-width:0.261436px;stroke-linecap:butt;stroke-linejoin:miter;stroke-opacity:1"
     d="m 19.553574,10.968494 c 2.524462,-3.3120933 5.048956,-6.6242288 7.169637,-6.3825446 2.12068,0.2416843 3.837302,4.0367638 5.907319,4.1056045 2.070016,0.068841 4.493483,-3.5882357 6.748827,-3.5363231 2.255344,0.051913 4.342218,3.8124926 6.429042,3.8640964 2.086824,0.051604 4.173697,-3.6054733 6.46272,-3.501822 2.289023,0.1036513 4.779808,3.9677318 6.849784,3.9331054 2.069976,-0.034626 3.719279,-3.9677093 5.907337,-4.0538431 2.188058,-0.086134 4.914457,3.6744449 7.220072,4.6058175 2.305614,0.931373 4.190533,-0.9661659 6.075494,-2.8637486"
     id="path2050"
     inkscape:path-effect="#path-effect2052"
     inkscape:original-d="m 19.553574,10.968494 c 2.524753,-3.3118716 5.049247,-6.6240074 7.573484,-9.9364079 1.716947,3.7954962 3.433568,7.5905759 5.149968,11.3854669 2.423822,-3.6569585 4.847288,-7.3140352 7.270545,-10.97145 2.087213,3.7609942 4.174089,7.5215732 6.260746,11.281962 2.087214,-3.6569579 4.174088,-7.3140347 6.260744,-10.9714492 2.491144,3.8645004 4.981928,7.7285814 7.472505,11.5924752 1.649627,-3.9329752 3.298931,-7.8660578 4.948008,-11.7994837 2.726768,3.7609943 5.453167,7.5215732 8.179362,11.2819627 1.885253,-1.897351 3.77017,-3.7948912 5.65487,-5.6927336" />
  <path
     style="fill:none;stroke:#000000;stroke-width:0.25991px;stroke-linecap:butt;stroke-linejoin:miter;stroke-opacity:1"
     d="m 15.105107,19.141338 c 0.332689,-0.241564 0.665335,-0.483097 1.879491,-1.742523 1.214155,-1.259425 3.309792,-3.536698 5.438858,-2.915431 2.129066,0.621267 4.291231,4.140688 6.536509,4.209541 2.245277,0.06885 4.573762,-3.312551 6.869165,-3.139866 2.295403,0.172684 4.557358,3.899129 6.786,3.933484 2.228642,0.03436 4.42407,-3.623081 6.752748,-3.553923 2.328679,0.06916 4.790221,3.864613 7.168548,3.7437 2.378326,-0.120914 4.673547,-4.157898 7.085381,-4.002473 2.411835,0.155425 4.939903,4.502944 7.135276,4.640829 2.195373,0.137885 4.05816,-3.933601 5.921103,-3.916211 1.862944,0.01739 3.725732,4.123382 5.172668,5.468923 1.446936,1.345542 2.478122,-0.06913 3.509366,-1.483877"
     id="path2054"
     inkscape:path-effect="#path-effect2056"
     inkscape:original-d="m 15.105107,19.141338 c 0.332903,-0.241269 0.665549,-0.482802 0.997941,-0.724601 2.095975,-2.277099 4.191611,-4.554372 6.287035,-6.831954 2.162506,3.519827 4.32467,7.039248 6.486624,10.558474 2.328831,-3.381275 4.657317,-6.762679 6.985593,-10.144416 2.262303,3.72686 4.524257,7.453305 6.786004,11.179561 2.195772,-3.65732 4.3912,-7.314757 6.586417,-10.972532 2.461894,3.795871 4.923437,7.591325 7.384771,11.386589 2.295567,-4.036879 4.590789,-8.073862 6.885799,-12.111191 2.528427,4.34796 5.056494,8.695479 7.584359,13.042822 1.863118,-4.071386 3.725905,-8.142872 5.588474,-12.214706 1.863119,4.10642 3.725905,8.212412 5.588476,12.318221 1.031483,-1.414462 2.062669,-2.829131 3.09362,-4.244094" />
  <path
     style="fill:none;stroke:#000000;stroke-width:0.262646px;stroke-linecap:butt;stroke-linejoin:miter;stroke-opacity:1"
     d="m 8.3803038,30.418612 c 3.1260502,-2.276708 6.2520592,-4.553386 8.6305982,-3.570058 2.378539,0.983328 4.009466,5.226139 6.184025,5.277715 2.174558,0.05158 4.89277,-4.087752 7.594192,-3.966855 2.701421,0.120897 5.385657,4.501688 8.103837,4.691245 2.718181,0.189557 5.470371,-3.811794 8.171791,-3.673645 2.70142,0.138148 5.351678,4.415454 7.781029,4.311826 2.429352,-0.103629 4.637899,-4.587901 6.96555,-4.536011 2.327652,0.05189 4.774044,4.639646 7.135451,4.742981 2.361407,0.103336 4.63791,-4.277454 6.965563,-4.3118 2.327654,-0.03434 4.70609,4.277455 7.237412,4.984424 2.531322,0.706969 5.215556,-2.19056 7.899857,-5.088161"
     id="path2058"
     inkscape:path-effect="#path-effect2060"
     inkscape:original-d="m 8.3803038,30.418612 c 3.1262672,-2.276411 6.2522752,-4.553089 9.3780222,-6.830031 1.631253,4.243248 3.262181,8.486059 4.892881,12.728693 2.718583,-4.139229 5.436793,-8.278558 8.154802,-12.418236 2.684604,4.381229 5.36884,8.762019 8.052866,13.142632 2.752563,-4.001247 5.504754,-8.002597 8.256737,-12.004293 2.650626,4.277741 5.300882,8.555048 7.950934,12.832177 2.208896,-4.484188 4.417442,-8.968461 6.625775,-13.45309 2.446752,4.588204 4.893142,9.175961 7.339322,13.763545 2.276855,-4.3807 4.553358,-8.76149 6.829645,-13.142632 2.378795,4.312239 4.757231,8.624039 7.135454,12.935661 2.684604,-2.897383 5.368839,-5.794911 8.052867,-8.692765" />
  <path
     style="fill:none;stroke:#000000;stroke-width:0.262113px;stroke-linecap:butt;stroke-linejoin:miter;stroke-opacity:1"
     d="m 1.5512698,42.52411 c 2.8086651,-2.897671 5.6173367,-5.795349 8.2738406,-4.812006 2.6565036,0.983344 5.1605706,5.847205 8.2737386,5.93326 3.113169,0.08605 6.835431,-4.605331 9.999534,-4.260175 3.164102,0.345156 5.769685,5.726451 9.1705,5.898737 3.400815,0.172286 7.59682,-4.864055 11.319293,-4.708628 3.722474,0.155426 6.970993,5.502225 10.236413,5.502056 3.26542,-1.69e-4 6.547777,-5.346968 10.033403,-5.433046 3.485626,-0.08608 7.17405,5.088245 10.473292,5.312311 3.299243,0.224066 6.209375,-4.501815 8.375187,-4.69138 2.165812,-0.189565 3.587039,4.156864 5.278967,5.174334 1.691928,1.017469 3.654576,-1.293729 5.617284,-3.604998"
     id="path2062"
     inkscape:path-effect="#path-effect2064"
     inkscape:original-d="m 1.5512698,42.52411 c 2.8089314,-2.897413 5.6176029,-5.795091 8.4260152,-8.693034 2.504426,4.864322 5.008494,9.728183 7.512351,14.591878 3.72267,-4.691307 7.444932,-9.382692 11.167009,-14.074436 2.605946,5.381776 5.21153,10.76307 7.816904,16.144207 4.196432,-5.036277 8.392437,-10.072618 12.588264,-15.109321 3.248908,5.347277 6.497426,10.694077 9.745754,16.040717 3.282747,-5.346749 6.565106,-10.693546 9.847269,-16.040717 3.68883,5.174792 7.377253,10.349115 11.065489,15.523275 2.91051,-4.725804 5.82064,-9.451687 8.73057,-14.177925 1.421545,4.346869 2.842772,8.693298 4.263768,13.039551 1.962985,-2.311024 3.925632,-4.622222 5.888059,-6.93373" />
  <path
     style="fill:none;stroke:#000000;stroke-width:0.26045px;stroke-linecap:butt;stroke-linejoin:miter;stroke-opacity:1"
     d="m 9.207124,55.768275 c 2.805898,-3.174357 5.611815,-6.348738 8.451265,-5.468689 2.839449,0.880049 5.712116,5.814039 8.768488,6.19341 3.056371,0.37937 6.296474,-3.795548 9.637017,-3.760879 3.340543,0.03467 6.781066,4.278594 10.03783,4.295686 3.256764,0.01709 6.32985,-4.192328 9.319632,-4.002382 2.989781,0.189946 5.895852,4.778903 9.21946,4.985744 3.323609,0.206841 7.064757,-3.968076 10.021111,-4.192171 2.956354,-0.224095 5.127557,3.502277 7.46574,3.743639 2.338183,0.241362 4.843415,-3.00196 6.513734,-4.036944 1.670319,-1.034984 2.505397,0.138132 3.340281,1.310976"
     id="path2066"
     inkscape:path-effect="#path-effect2068"
     inkscape:original-d="m 9.207124,55.768275 c 2.806174,-3.174113 5.612091,-6.348494 8.417751,-9.523138 2.873039,4.934454 5.745706,9.868444 8.618175,14.80227 3.240486,-4.174818 6.480589,-8.349735 9.720498,-12.524998 3.440915,4.244356 6.881436,8.488282 10.321769,12.732023 3.073464,-4.209322 6.146551,-8.418743 9.21944,-12.62851 2.906445,4.589404 5.812515,9.178362 8.718388,13.767148 3.741553,-4.174819 7.482702,-8.349735 11.223668,-12.525 2.171544,3.726785 4.342747,7.453157 6.513735,11.179337 2.505591,-3.243189 5.010825,-6.48651 7.515849,-9.730163 0.835368,1.173429 1.670448,2.346544 2.505285,3.519421" />
  <path
     style="fill:none;stroke:#000000;stroke-width:0.260377px;stroke-linecap:butt;stroke-linejoin:miter;stroke-opacity:1"
     d="m 14.691073,67.253822 c 0.400493,-0.379675 0.800981,-0.759347 2.2361,-1.950162 1.435119,-1.190816 3.90475,-3.192679 6.608186,-2.502185 2.703436,0.690494 5.640293,4.072952 8.543732,4.09005 2.90344,0.0171 5.773551,-3.330844 8.410238,-3.244383 2.636687,0.08646 5.039572,3.606979 8.10993,3.813882 3.070358,0.206902 6.808176,-2.899436 9.261237,-3.05456 2.453061,-0.155124 3.621129,2.640579 5.773713,2.329755 2.152585,-0.310825 5.289682,-3.727797 7.709403,-3.710355 2.419721,0.01744 4.121763,3.468928 6.240951,3.693107 2.119188,0.224178 4.655565,-2.778616 6.107388,-3.503287 1.451823,-0.724672 1.81893,0.828497 2.185973,2.38139"
     id="path2070"
     inkscape:path-effect="#path-effect2072"
     inkscape:original-d="m 14.691073,67.253822 c 0.400745,-0.379409 0.801234,-0.75908 1.201466,-1.139015 2.469984,-2.001678 4.939615,-4.003541 7.409039,-6.005709 2.937231,3.382859 5.87409,6.765315 8.810749,10.147576 2.870483,-3.347811 5.740593,-6.695755 8.610505,-10.044028 2.403236,3.520921 4.80612,7.04144 7.208796,10.561761 3.738224,-3.106198 7.476043,-6.212535 11.21368,-9.319203 1.168373,2.796084 2.336439,5.591788 3.504277,8.387284 3.13748,-3.416845 6.274577,-6.833817 9.411482,-10.251124 1.702367,3.451891 3.404409,6.903378 5.106229,10.354671 2.536735,-3.002649 5.073111,-6.005445 7.609283,-9.008561 0.367379,1.553495 0.734487,3.106663 1.101345,4.6596" />
  <path
     style="fill:none;stroke:#000000;stroke-width:0.259475px;stroke-linecap:butt;stroke-linejoin:miter;stroke-opacity:1"
     d="m 22.760567,81.117888 c 3.248867,-3.933687 6.497762,-7.867406 9.614173,-6.987298 3.11641,0.880109 6.100028,6.573535 9.133359,6.832166 3.03333,0.258631 6.116402,-4.917211 8.503437,-4.917044 2.387035,1.68e-4 4.077752,5.17601 6.646993,5.331111 2.569242,0.155101 6.01698,-4.710194 8.602928,-4.761775 2.585948,-0.05158 4.309817,4.710194 6.48123,5.624435 2.171414,0.91424 4.790369,-2.018738 7.409395,-4.951795"
     id="path2131"
     inkscape:path-effect="#path-effect2133"
     inkscape:original-d="m 22.760567,81.117888 c 3.249149,-3.933454 6.498043,-7.867174 9.746682,-11.801157 2.983992,5.69392 5.96761,11.387346 8.951034,17.080624 3.08345,-5.175787 6.166523,-10.351628 9.249401,-15.52784 1.69104,5.176315 3.381756,10.352157 5.072252,15.52784 3.448129,-4.865222 6.895867,-9.730517 10.343417,-14.59617 1.724191,4.762232 3.44806,9.524007 5.171709,14.285611 2.619312,-2.932829 5.238266,-5.865808 7.85702,-8.799108" />
</svg>
