<?xml version="1.0" encoding="UTF-8"?>
<!DOCTYPE svg PUBLIC "-//W3C//DTD SVG 1.1//EN" "http://www.w3.org/Graphics/SVG/1.1/DTD/svg11.dtd">
<svg version="1.2" width="100mm" height="86.6mm" viewBox="0 0 10000 8660" preserveAspectRatio="xMidYMid" fill-rule="evenodd" stroke-width="28.222" stroke-linejoin="round" xmlns="http://www.w3.org/2000/svg" xmlns:ooo="http://xml.openoffice.org/svg/export" xmlns:xlink="http://www.w3.org/1999/xlink" xmlns:presentation="http://sun.com/xmlns/staroffice/presentation" xmlns:smil="http://www.w3.org/2001/SMIL20/" xmlns:anim="urn:oasis:names:tc:opendocument:xmlns:animation:1.0" xml:space="preserve">
 <defs class="ClipPathGroup">
  <clipPath id="presentation_clip_path" clipPathUnits="userSpaceOnUse">
   <rect x="0" y="0" width="10000" height="8660"/>
  </clipPath>
  <clipPath id="presentation_clip_path_shrink" clipPathUnits="userSpaceOnUse">
   <rect x="10" y="8" width="9980" height="8643"/>
  </clipPath>
 </defs>
 <defs class="TextShapeIndex">
  <g ooo:slide="id1" ooo:id-list="id3 id4 id5 id6 id7 id8 id9 id10 id11 id12 id13 id14 id15 id16 id17 id18 id19 id20 id21 id22 id23 id24 id25 id26 id27 id28"/>
 </defs>
 <defs class="EmbeddedBulletChars">
  <g id="bullet-char-template-57356" transform="scale(0.00048828125,-0.00048828125)">
   <path d="M 580,1141 L 1163,571 580,0 -4,571 580,1141 Z"/>
  </g>
  <g id="bullet-char-template-57354" transform="scale(0.00048828125,-0.00048828125)">
   <path d="M 8,1128 L 1137,1128 1137,0 8,0 8,1128 Z"/>
  </g>
  <g id="bullet-char-template-10146" transform="scale(0.00048828125,-0.00048828125)">
   <path d="M 174,0 L 602,739 174,1481 1456,739 174,0 Z M 1358,739 L 309,1346 659,739 1358,739 Z"/>
  </g>
  <g id="bullet-char-template-10132" transform="scale(0.00048828125,-0.00048828125)">
   <path d="M 2015,739 L 1276,0 717,0 1260,543 174,543 174,936 1260,936 717,1481 1274,1481 2015,739 Z"/>
  </g>
  <g id="bullet-char-template-10007" transform="scale(0.00048828125,-0.00048828125)">
   <path d="M 0,-2 C -7,14 -16,27 -25,37 L 356,567 C 262,823 215,952 215,954 215,979 228,992 255,992 264,992 276,990 289,987 310,991 331,999 354,1012 L 381,999 492,748 772,1049 836,1024 860,1049 C 881,1039 901,1025 922,1006 886,937 835,863 770,784 769,783 710,716 594,584 L 774,223 C 774,196 753,168 711,139 L 727,119 C 717,90 699,76 672,76 641,76 570,178 457,381 L 164,-76 C 142,-110 111,-127 72,-127 30,-127 9,-110 8,-76 1,-67 -2,-52 -2,-32 -2,-23 -1,-13 0,-2 Z"/>
  </g>
  <g id="bullet-char-template-10004" transform="scale(0.00048828125,-0.00048828125)">
   <path d="M 285,-33 C 182,-33 111,30 74,156 52,228 41,333 41,471 41,549 55,616 82,672 116,743 169,778 240,778 293,778 328,747 346,684 L 369,508 C 377,444 397,411 428,410 L 1163,1116 C 1174,1127 1196,1133 1229,1133 1271,1133 1292,1118 1292,1087 L 1292,965 C 1292,929 1282,901 1262,881 L 442,47 C 390,-6 338,-33 285,-33 Z"/>
  </g>
  <g id="bullet-char-template-9679" transform="scale(0.00048828125,-0.00048828125)">
   <path d="M 813,0 C 632,0 489,54 383,161 276,268 223,411 223,592 223,773 276,916 383,1023 489,1130 632,1184 813,1184 992,1184 1136,1130 1245,1023 1353,916 1407,772 1407,592 1407,412 1353,268 1245,161 1136,54 992,0 813,0 Z"/>
  </g>
  <g id="bullet-char-template-8226" transform="scale(0.00048828125,-0.00048828125)">
   <path d="M 346,457 C 273,457 209,483 155,535 101,586 74,649 74,723 74,796 101,859 155,911 209,963 273,989 346,989 419,989 480,963 531,910 582,859 608,796 608,723 608,648 583,586 532,535 482,483 420,457 346,457 Z"/>
  </g>
  <g id="bullet-char-template-8211" transform="scale(0.00048828125,-0.00048828125)">
   <path d="M -4,459 L 1135,459 1135,606 -4,606 -4,459 Z"/>
  </g>
  <g id="bullet-char-template-61548" transform="scale(0.00048828125,-0.00048828125)">
   <path d="M 173,740 C 173,903 231,1043 346,1159 462,1274 601,1332 765,1332 928,1332 1067,1274 1183,1159 1299,1043 1357,903 1357,740 1357,577 1299,437 1183,322 1067,206 928,148 765,148 601,148 462,206 346,322 231,437 173,577 173,740 Z"/>
  </g>
 </defs>
 <defs class="TextEmbeddedBitmaps"/>
 <g>
  <g id="id2" class="Master_Slide">
   <g id="bg-id2" class="Background"/>
   <g id="bo-id2" class="BackgroundObjects"/>
  </g>
 </g>
 <g class="SlideGroup">
  <g>
   <g id="container-id1">
    <g id="id1" class="Slide" clip-path="url(#presentation_clip_path)">
     <g class="Page">
      <g class="Group">
       <g class="com.sun.star.drawing.CustomShape">
        <g id="id3">
         <rect class="BoundingBox" stroke="none" fill="none" x="4227" y="1263" width="1261" height="1261"/>
         <path d="M 4856,1263 C 5213,1263 5486,1535 5486,1892 5486,2249 5213,2522 4856,2522 4499,2522 4227,2249 4227,1892 4227,1535 4499,1263 4856,1263 Z M 4227,1263 L 4227,1263 Z M 5487,2523 L 5487,2523 Z"/>
        </g>
       </g>
       <g class="com.sun.star.drawing.LineShape">
        <g id="id4">
         <rect class="BoundingBox" stroke="none" fill="none" x="3930" y="4363" width="1017" height="1352"/>
         <path stroke-width="176" stroke-linejoin="round" d="M 4019,5626 L 4858,4452"/>
        </g>
       </g>
       <g class="com.sun.star.drawing.LineShape">
        <g id="id5">
         <rect class="BoundingBox" stroke="none" fill="none" x="4769" y="2350" width="178" height="2275"/>
         <path stroke-width="176" stroke-linejoin="round" d="M 4858,2438 L 4858,4536"/>
        </g>
       </g>
       <g class="com.sun.star.drawing.LineShape">
        <g id="id6">
         <rect class="BoundingBox" stroke="none" fill="none" x="4769" y="4363" width="1017" height="1352"/>
         <path stroke-width="176" stroke-linejoin="round" d="M 5696,5626 L 4858,4452"/>
        </g>
       </g>
       <g class="com.sun.star.drawing.LineShape">
        <g id="id7">
         <rect class="BoundingBox" stroke="none" fill="none" x="4015" y="3105" width="933" height="514"/>
         <path stroke-width="176" stroke-linejoin="round" d="M 4103,3529 L 4859,3194"/>
        </g>
       </g>
       <g class="com.sun.star.drawing.LineShape">
        <g id="id8">
         <rect class="BoundingBox" stroke="none" fill="none" x="4769" y="3105" width="598" height="1017"/>
         <path stroke-width="176" stroke-linejoin="round" d="M 5278,4033 L 4858,3194"/>
        </g>
       </g>
       <g class="com.sun.star.drawing.LineShape">
        <g id="id9">
         <rect class="BoundingBox" stroke="none" fill="none" x="5105" y="3524" width="1017" height="598"/>
         <path stroke-width="176" stroke-linejoin="round" d="M 5193,4033 L 6032,3613"/>
        </g>
       </g>
       <g class="com.sun.star.drawing.LineShape">
        <g id="id10">
         <rect class="BoundingBox" stroke="none" fill="none" x="4035" y="3369" width="345" height="681"/>
         <path stroke-width="176" stroke-linejoin="round" d="M 4291,3961 L 4123,3458"/>
        </g>
       </g>
       <g class="com.sun.star.drawing.CustomShape">
        <g id="id11">
         <rect class="BoundingBox" stroke="none" fill="none" x="2397" y="4619" width="4430" height="1507"/>
         <path stroke="none" d="M 4611,4619 C 5866,4619 6825,4945 6825,5371 6825,5797 5866,6123 4611,6123 3356,6123 2398,5797 2398,5371 2398,4945 3356,4619 4611,4619 Z M 2398,4619 L 2398,4619 Z M 6826,6124 L 6826,6124 Z"/>
        </g>
       </g>
       <g class="com.sun.star.drawing.LineShape">
        <g id="id12">
         <rect class="BoundingBox" stroke="none" fill="none" x="2542" y="5688" width="525" height="1103"/>
         <path stroke-width="176" stroke-linejoin="round" d="M 2631,6702 L 2978,5776"/>
        </g>
       </g>
       <g class="com.sun.star.drawing.LineShape">
        <g id="id13">
         <rect class="BoundingBox" stroke="none" fill="none" x="3005" y="5688" width="193" height="1005"/>
         <path stroke-width="176" stroke-linejoin="round" d="M 3093,6603 L 3108,5776"/>
        </g>
       </g>
       <g class="com.sun.star.drawing.LineShape">
        <g id="id14">
         <rect class="BoundingBox" stroke="none" fill="none" x="5854" y="5688" width="612" height="1219"/>
         <path stroke-width="176" stroke-linejoin="round" d="M 5943,6818 L 6377,5776"/>
        </g>
       </g>
       <g class="com.sun.star.drawing.LineShape">
        <g id="id15">
         <rect class="BoundingBox" stroke="none" fill="none" x="6288" y="5572" width="901" height="757"/>
         <path stroke-width="176" stroke-linejoin="round" d="M 7100,6239 L 6377,5661"/>
        </g>
       </g>
       <g class="com.sun.star.drawing.LineShape">
        <g id="id16">
         <rect class="BoundingBox" stroke="none" fill="none" x="2513" y="6498" width="670" height="872"/>
         <path stroke-width="176" stroke-linejoin="round" d="M 3093,7280 L 2602,6586"/>
        </g>
       </g>
       <g class="com.sun.star.drawing.LineShape">
        <g id="id17">
         <rect class="BoundingBox" stroke="none" fill="none" x="3005" y="6382" width="670" height="988"/>
         <path stroke-width="176" stroke-linejoin="round" d="M 3585,7280 L 3093,6470"/>
        </g>
       </g>
       <g class="com.sun.star.drawing.LineShape">
        <g id="id18">
         <rect class="BoundingBox" stroke="none" fill="none" x="5434" y="6613" width="656" height="872"/>
         <path stroke-width="176" stroke-linejoin="round" d="M 5523,7396 L 6001,6702"/>
        </g>
       </g>
       <g class="com.sun.star.drawing.LineShape">
        <g id="id19">
         <rect class="BoundingBox" stroke="none" fill="none" x="6505" y="6035" width="611" height="756"/>
         <path stroke-width="176" stroke-linejoin="round" d="M 6593,6702 L 7027,6123"/>
        </g>
       </g>
       <g class="com.sun.star.drawing.CustomShape">
        <g id="id20">
         <rect class="BoundingBox" stroke="none" fill="none" x="5709" y="3227" width="2248" height="2571"/>
         <path stroke="none" d="M 6403,4277 C 6797,3562 7283,3118 7525,3251 7768,3384 7654,4032 7261,4747 6867,5462 6381,5906 6139,5773 5896,5640 6010,4992 6403,4277 Z M 5710,5538 L 5710,5538 Z M 7956,3486 L 7956,3486 Z"/>
        </g>
       </g>
       <g class="com.sun.star.drawing.CustomShape">
        <g id="id21">
         <rect class="BoundingBox" stroke="none" fill="none" x="7026" y="3236" width="1234" height="1425"/>
         <path stroke="none" d="M 7348,3250 C 7531,3173 7797,3417 7964,3813 8130,4208 8118,4569 7936,4646 7753,4723 7487,4479 7320,4083 7154,3688 7166,3327 7348,3250 Z M 7027,3386 L 7027,3386 Z M 8259,4511 L 8259,4511 Z"/>
        </g>
       </g>
       <g class="com.sun.star.drawing.LineShape">
        <g id="id22">
         <rect class="BoundingBox" stroke="none" fill="none" x="3786" y="2564" width="3215" height="2723"/>
         <path stroke-width="176" stroke-linejoin="round" d="M 3874,5198 L 6911,2652"/>
        </g>
       </g>
       <g class="com.sun.star.drawing.LineShape">
        <g id="id23">
         <rect class="BoundingBox" stroke="none" fill="none" x="6560" y="2773" width="419" height="454"/>
         <path stroke-width="176" stroke-linejoin="round" d="M 6889,3137 L 6649,2862"/>
        </g>
       </g>
       <g class="com.sun.star.drawing.LineShape">
        <g id="id24">
         <rect class="BoundingBox" stroke="none" fill="none" x="6709" y="2448" width="870" height="759"/>
         <path stroke-width="176" stroke-linejoin="round" d="M 6798,3118 L 7490,2537"/>
        </g>
       </g>
       <g class="com.sun.star.drawing.CustomShape">
        <g id="id25">
         <rect class="BoundingBox" stroke="none" fill="none" x="7062" y="3062" width="249" height="286"/>
         <path stroke="none" d="M 7126,3065 C 7162,3050 7217,3099 7250,3177 7283,3256 7280,3328 7244,3344 7208,3359 7154,3310 7121,3231 7088,3153 7091,3080 7126,3065 Z M 7063,3092 L 7063,3092 Z M 7310,3317 L 7310,3317 Z"/>
        </g>
       </g>
       <g class="com.sun.star.drawing.CustomShape">
        <g id="id26">
         <rect class="BoundingBox" stroke="none" fill="none" x="7294" y="3047" width="250" height="285"/>
         <path stroke="none" d="M 7359,3050 C 7395,3035 7449,3084 7483,3162 7516,3240 7513,3313 7477,3328 7441,3343 7387,3294 7353,3216 7320,3138 7323,3065 7359,3050 Z M 7294,3077 L 7294,3077 Z M 7543,3301 L 7543,3301 Z"/>
        </g>
       </g>
       <g class="com.sun.star.drawing.LineShape">
        <g id="id27">
         <rect class="BoundingBox" stroke="none" fill="none" x="1654" y="5132" width="640" height="1220"/>
         <path stroke-width="176" stroke-linejoin="round" d="M 1742,6262 L 2205,5221"/>
        </g>
       </g>
       <g class="com.sun.star.drawing.LineShape">
        <g id="id28">
         <rect class="BoundingBox" stroke="none" fill="none" x="2001" y="5017" width="756" height="409"/>
         <path stroke-width="176" stroke-linejoin="round" d="M 2089,5337 L 2668,5105"/>
        </g>
       </g>
      </g>
     </g>
    </g>
   </g>
  </g>
 </g>
</svg>